<svg width="20" height="22" viewBox="0 0 20 22" fill="#999999" stroke="#999999" xmlns="http://www.w3.org/2000/svg">
<path fill-rule="evenodd" clip-rule="evenodd" d="M13.3102 20.03C13.2102 20.71 12.5902 21.25 11.8502 21.25H8.15023C7.41023 21.25 6.79023 20.71 6.70023 19.98L6.43023 18.09C6.16023 17.95 5.90023 17.8 5.64023 17.63L3.84023 18.35C3.14023 18.61 2.37023 18.32 2.03023 17.7L0.200234 14.53C-0.149766 13.87 0.000234306 13.09 0.560234 12.65L2.09023 11.46C2.08023 11.31 2.07023 11.16 2.07023 11C2.07023 10.85 2.08023 10.69 2.09023 10.54L0.570234 9.35001C-0.0197657 8.90001 -0.169766 8.09001 0.200234 7.47001L2.05023 4.28001C2.39023 3.66001 3.16023 3.38001 3.84023 3.65001L5.65023 4.38001C5.91023 4.21001 6.17023 4.06001 6.43023 3.92001L6.70023 2.01001C6.79023 1.31001 7.41023 0.76001 8.14023 0.76001H11.8402C12.5802 0.76001 13.2002 1.30001 13.2902 2.03001L13.5602 3.92001C13.8302 4.06001 14.0902 4.21001 14.3502 4.38001L16.1502 3.66001C16.8602 3.40001 17.6302 3.69001 17.9702 4.31001L19.8102 7.49001C20.1702 8.15001 20.0102 8.93001 19.4502 9.37001L17.9302 10.56C17.9402 10.71 17.9502 10.86 17.9502 11.02C17.9502 11.18 17.9402 11.33 17.9302 11.48L19.4502 12.67C20.0102 13.12 20.1702 13.9 19.8202 14.53L17.9602 17.75C17.6202 18.37 16.8502 18.65 16.1602 18.38L14.3602 17.66C14.1002 17.83 13.8402 17.98 13.5802 18.12L13.3102 20.03ZM8.62023 19.25H11.3802L11.7502 16.7L12.2802 16.48C12.7202 16.3 13.1602 16.04 13.6202 15.7L14.0702 15.36L16.4502 16.32L17.8302 13.92L15.8002 12.34L15.8702 11.78L15.8733 11.7531C15.9023 11.5027 15.9302 11.2607 15.9302 11C15.9302 10.73 15.9002 10.47 15.8702 10.22L15.8002 9.66001L17.8302 8.08001L16.4402 5.68001L14.0502 6.64001L13.6002 6.29001C13.1802 5.97001 12.7302 5.71001 12.2702 5.52001L11.7502 5.30001L11.3802 2.75001H8.62023L8.25023 5.30001L7.72023 5.51001C7.28023 5.70001 6.84023 5.95001 6.38023 6.30001L5.93023 6.63001L3.55023 5.68001L2.16023 8.07001L4.19023 9.65001L4.12023 10.21C4.09023 10.47 4.06023 10.74 4.06023 11C4.06023 11.26 4.08023 11.53 4.12023 11.78L4.19023 12.34L2.16023 13.92L3.54023 16.32L5.93023 15.36L6.38023 15.71C6.81023 16.04 7.24023 16.29 7.71023 16.48L8.24023 16.7L8.62023 19.25ZM13.5002 11C13.5002 12.933 11.9332 14.5 10.0002 14.5C8.06724 14.5 6.50023 12.933 6.50023 11C6.50023 9.06701 8.06724 7.50001 10.0002 7.50001C11.9332 7.50001 13.5002 9.06701 13.5002 11Z" fill="#999999"/>
</svg>
